<svg width="260" height="260" viewBox="0 0 260 260" fill="none" xmlns="http://www.w3.org/2000/svg">
<circle cx="130" cy="130" r="130" fill="#5C53A7"/>
<path d="M167 80L210 130L167 180" stroke="white" stroke-width="35" stroke-linecap="round" stroke-linejoin="round"/>
<path d="M79.7318 191.411C86.0337 198.739 97.0828 199.57 104.411 193.268C111.739 186.966 112.57 175.917 106.268 168.589L79.7318 191.411ZM106.268 91.4107C112.57 84.0828 111.739 73.0337 104.411 66.7318C97.0828 60.4298 86.0337 61.2615 79.7318 68.5893L106.268 91.4107ZM50 130L36.7318 118.589C31.0894 125.15 31.0894 134.85 36.7318 141.411L50 130ZM106.268 168.589L63.2682 118.589L36.7318 141.411L79.7318 191.411L106.268 168.589ZM63.2682 141.411L106.268 91.4107L79.7318 68.5893L36.7318 118.589L63.2682 141.411Z" fill="white"/>
<line x1="169.399" y1="45.071" x2="96.071" y2="221.601" stroke="white" stroke-width="20" stroke-linecap="round"/>
</svg>
